<svg width="13" height="13" viewBox="0 0 13 13" fill="none" xmlns="http://www.w3.org/2000/svg">
<path d="M5.47483 8.07511L9.79408 3.75586C9.86842 3.68145 9.95542 3.64345 10.0551 3.64186C10.1547 3.64028 10.2434 3.67828 10.321 3.75586C10.3985 3.83345 10.4373 3.92253 10.4373 4.02311C10.4373 4.12378 10.3985 4.2129 10.321 4.29049L5.79121 8.82799C5.70079 8.91832 5.59533 8.96349 5.47483 8.96349C5.35433 8.96349 5.24887 8.91832 5.15846 8.82799L3.07096 6.74049C2.99662 6.66607 2.95996 6.57774 2.96096 6.47549C2.96187 6.37332 3.00112 6.28345 3.07871 6.20586C3.15629 6.12828 3.24537 6.08949 3.34596 6.08949C3.44662 6.08949 3.53575 6.12828 3.61333 6.20586L5.47483 8.07511Z" fill="black"/>
</svg>
