<svg width="23" height="23" viewBox="0 0 23 23" fill="none" xmlns="http://www.w3.org/2000/svg">
<path d="M19.9576 8.59749C20.3952 8.59749 20.7817 8.76531 21.1172 9.10096C21.4529 9.43645 21.6207 9.82301 21.6207 10.2606V11.7466C21.6207 11.8432 21.6083 11.9467 21.5834 12.0571C21.5588 12.1674 21.5311 12.2704 21.5004 12.366L18.8637 18.5875C18.732 18.8818 18.511 19.1303 18.2008 19.3332C17.8906 19.5361 17.567 19.6375 17.2298 19.6375H7.55528V8.59749L12.9072 3.29162C13.0901 3.10885 13.3018 2.99975 13.5424 2.96433C13.783 2.92891 14.0135 2.97016 14.234 3.08807C14.4547 3.20614 14.6163 3.37365 14.7189 3.59062C14.8214 3.80759 14.8433 4.0323 14.7844 4.26475L13.7936 8.59749H19.9576ZM8.93528 9.18491V18.2575H17.233C17.2979 18.2575 17.3642 18.2398 17.4319 18.2044C17.4999 18.1689 17.5515 18.11 17.587 18.0275L20.2407 11.8175V10.2606C20.2407 10.178 20.2142 10.1101 20.1611 10.0571C20.1081 10.004 20.0402 9.97749 19.9576 9.97749H12.0493L13.2027 4.9352L8.93528 9.18491ZM4.88383 19.6375C4.42644 19.6375 4.0349 19.4746 3.70922 19.149C3.38354 18.8233 3.2207 18.4318 3.2207 17.9744V10.2606C3.2207 9.80323 3.38354 9.41169 3.70922 9.08601C4.0349 8.76033 4.42644 8.59749 4.88383 8.59749H7.55528V9.97749H4.88383C4.80119 9.97749 4.73334 10.004 4.68028 10.0571C4.62723 10.1101 4.6007 10.178 4.6007 10.2606V17.9744C4.6007 18.057 4.62723 18.1249 4.68028 18.1779C4.73334 18.231 4.80119 18.2575 4.88383 18.2575H7.55528V19.6375H4.88383Z" fill="white"/>
</svg>
