<svg width="24" height="25" viewBox="0 0 24 25" fill="none" xmlns="http://www.w3.org/2000/svg">
<path fill-rule="evenodd" clip-rule="evenodd" d="M18.452 9.66849C20.356 8.60249 20.993 6.26849 19.874 4.45449C18.755 2.64049 16.304 2.03449 14.399 3.09949L5.55202 8.06449C4.26202 8.78649 3.50302 10.1335 3.58402 11.5555C3.66502 12.9785 4.57302 14.2385 5.93702 14.8235L6.87902 15.2275L5.55202 15.9695C3.64802 17.0355 3.01102 19.3695 4.13002 21.1835C5.24902 22.9975 7.70002 23.6045 9.60502 22.5385L18.452 17.5735C19.742 16.8515 20.501 15.5055 20.42 14.0835C20.339 12.6605 19.431 11.3995 18.067 10.8145L17.125 10.4115L18.452 9.66849ZM10.002 15.3845C10.002 15.4283 10.0135 15.4713 10.0354 15.5092C10.0573 15.5471 10.0887 15.5787 10.1266 15.6006C10.1644 15.6226 10.2074 15.6343 10.2512 15.6344C10.295 15.6346 10.338 15.6232 10.376 15.6015L14.826 13.0345C14.864 13.0125 14.8956 12.981 14.9175 12.943C14.9395 12.905 14.951 12.8619 14.951 12.818C14.951 12.7741 14.9395 12.731 14.9175 12.693C14.8956 12.655 14.864 12.6234 14.826 12.6015L10.376 10.0345C10.3381 10.0128 10.2951 10.0015 10.2514 10.0016C10.2077 10.0017 10.1648 10.0132 10.127 10.0351C10.0891 10.0569 10.0577 10.0883 10.0358 10.1261C10.0138 10.1639 10.0022 10.2068 10.002 10.2505V15.3845Z" fill="white"/>
</svg>
