<svg width="24" height="25" viewBox="0 0 24 25" fill="none" xmlns="http://www.w3.org/2000/svg">
<path d="M12 19.3732C11.5875 19.3732 11.2344 19.2263 10.9408 18.9325C10.6469 18.6388 10.5 18.2857 10.5 17.8732C10.5 17.4607 10.6469 17.1076 10.9408 16.8137C11.2344 16.5201 11.5875 16.3732 12 16.3732C12.4125 16.3732 12.7656 16.5201 13.0592 16.8137C13.3531 17.1076 13.5 17.4607 13.5 17.8732C13.5 18.2857 13.3531 18.6388 13.0592 18.9325C12.7656 19.2263 12.4125 19.3732 12 19.3732ZM12 13.604C11.5875 13.604 11.2344 13.4571 10.9408 13.1632C10.6469 12.8696 10.5 12.5165 10.5 12.104C10.5 11.6915 10.6469 11.3384 10.9408 11.0447C11.2344 10.7509 11.5875 10.604 12 10.604C12.4125 10.604 12.7656 10.7509 13.0592 11.0447C13.3531 11.3384 13.5 11.6915 13.5 12.104C13.5 12.5165 13.3531 12.8696 13.0592 13.1632C12.7656 13.4571 12.4125 13.604 12 13.604ZM12 7.83475C11.5875 7.83475 11.2344 7.68791 10.9408 7.39425C10.6469 7.10041 10.5 6.74725 10.5 6.33475C10.5 5.92225 10.6469 5.56916 10.9408 5.2755C11.2344 4.98166 11.5875 4.83475 12 4.83475C12.4125 4.83475 12.7656 4.98166 13.0592 5.2755C13.3531 5.56916 13.5 5.92225 13.5 6.33475C13.5 6.74725 13.3531 7.10041 13.0592 7.39425C12.7656 7.68791 12.4125 7.83475 12 7.83475Z" fill="white"/>
</svg>
