<svg width="30" height="30" viewBox="0 0 30 30" fill="none" xmlns="http://www.w3.org/2000/svg">
<path d="M16.547 15L11.6591 10.1124C11.4931 9.94622 11.4081 9.73731 11.4041 9.48571C11.4003 9.23431 11.4853 9.02161 11.6591 8.84761C11.8331 8.67381 12.0439 8.58691 12.2915 8.58691C12.5391 8.58691 12.7499 8.67381 12.9239 8.84761L18.317 14.2407C18.4292 14.3531 18.5084 14.4716 18.5546 14.5962C18.6008 14.7208 18.6239 14.8554 18.6239 15C18.6239 15.1446 18.6008 15.2792 18.5546 15.4038C18.5084 15.5284 18.4292 15.6469 18.317 15.7593L12.9239 21.1524C12.7577 21.3184 12.5488 21.4034 12.2972 21.4074C12.0458 21.4112 11.8331 21.3262 11.6591 21.1524C11.4853 20.9784 11.3984 20.7676 11.3984 20.52C11.3984 20.2724 11.4853 20.0616 11.6591 19.8876L16.547 15Z" fill="white"/>
</svg>
