<svg width="30" height="30" viewBox="0 0 30 30" fill="none" xmlns="http://www.w3.org/2000/svg">
<path d="M16.547 15.104L11.6591 10.2164C11.4931 10.0502 11.4081 9.84135 11.4041 9.58975C11.4003 9.33835 11.4853 9.12565 11.6591 8.95165C11.8331 8.77785 12.0439 8.69095 12.2915 8.69095C12.5391 8.69095 12.7499 8.77785 12.9239 8.95165L18.317 14.3447C18.4292 14.4571 18.5084 14.5756 18.5546 14.7003C18.6008 14.8249 18.6239 14.9594 18.6239 15.104C18.6239 15.2486 18.6008 15.3832 18.5546 15.5078C18.5084 15.6324 18.4292 15.7509 18.317 15.8633L12.9239 21.2564C12.7577 21.4225 12.5488 21.5075 12.2972 21.5114C12.0458 21.5153 11.8331 21.4303 11.6591 21.2564C11.4853 21.0824 11.3984 20.8717 11.3984 20.6241C11.3984 20.3765 11.4853 20.1657 11.6591 19.9917L16.547 15.104Z" fill="white"/>
</svg>
