<svg width="24" height="25" viewBox="0 0 24 25" fill="none" xmlns="http://www.w3.org/2000/svg">
<path d="M12 20.0867C11.5875 20.0867 11.2344 19.9398 10.9408 19.646C10.6469 19.3523 10.5 18.9992 10.5 18.5867C10.5 18.1742 10.6469 17.8211 10.9408 17.5272C11.2344 17.2336 11.5875 17.0867 12 17.0867C12.4125 17.0867 12.7656 17.2336 13.0592 17.5272C13.3531 17.8211 13.5 18.1742 13.5 18.5867C13.5 18.9992 13.3531 19.3523 13.0592 19.646C12.7656 19.9398 12.4125 20.0867 12 20.0867ZM12 14.3175C11.5875 14.3175 11.2344 14.1706 10.9408 13.8767C10.6469 13.5831 10.5 13.23 10.5 12.8175C10.5 12.405 10.6469 12.0519 10.9408 11.7582C11.2344 11.4644 11.5875 11.3175 12 11.3175C12.4125 11.3175 12.7656 11.4644 13.0592 11.7582C13.3531 12.0519 13.5 12.405 13.5 12.8175C13.5 13.23 13.3531 13.5831 13.0592 13.8767C12.7656 14.1706 12.4125 14.3175 12 14.3175ZM12 8.54825C11.5875 8.54825 11.2344 8.40142 10.9408 8.10775C10.6469 7.81392 10.5 7.46075 10.5 7.04825C10.5 6.63575 10.6469 6.28267 10.9408 5.989C11.2344 5.69517 11.5875 5.54825 12 5.54825C12.4125 5.54825 12.7656 5.69517 13.0592 5.989C13.3531 6.28267 13.5 6.63575 13.5 7.04825C13.5 7.46075 13.3531 7.81392 13.0592 8.10775C12.7656 8.40142 12.4125 8.54825 12 8.54825Z" fill="white"/>
</svg>
