<svg width="23" height="23" viewBox="0 0 23 23" fill="none" xmlns="http://www.w3.org/2000/svg">
<path d="M19.9576 8.5975C20.3952 8.5975 20.7817 8.76533 21.1172 9.10097C21.4529 9.43647 21.6207 9.82302 21.6207 10.2606V11.7467C21.6207 11.8433 21.6083 11.9468 21.5834 12.0572C21.5588 12.1674 21.5311 12.2704 21.5004 12.3661L18.8637 18.5876C18.732 18.8818 18.511 19.1304 18.2008 19.3332C17.8906 19.5361 17.567 19.6375 17.2298 19.6375H7.55528V8.5975L12.9072 3.29163C13.0901 3.10886 13.3018 2.99977 13.5424 2.96435C13.783 2.92893 14.0135 2.97017 14.234 3.08809C14.4547 3.20615 14.6163 3.37367 14.7189 3.59063C14.8214 3.8076 14.8433 4.03231 14.7844 4.26476L13.7936 8.5975H19.9576ZM8.93528 9.18492V18.2575H17.233C17.2979 18.2575 17.3642 18.2398 17.4319 18.2044C17.4999 18.169 17.5515 18.11 17.587 18.0275L20.2407 11.8175V10.2606C20.2407 10.178 20.2142 10.1101 20.1611 10.0571C20.1081 10.004 20.0402 9.9775 19.9576 9.9775H12.0493L13.2027 4.93521L8.93528 9.18492ZM4.88383 19.6375C4.42644 19.6375 4.0349 19.4747 3.70922 19.149C3.38354 18.8233 3.2207 18.4318 3.2207 17.9744V10.2606C3.2207 9.80324 3.38354 9.4117 3.70922 9.08602C4.0349 8.76034 4.42644 8.5975 4.88383 8.5975H7.55528V9.9775H4.88383C4.80119 9.9775 4.73334 10.004 4.68028 10.0571C4.62723 10.1101 4.6007 10.178 4.6007 10.2606V17.9744C4.6007 18.057 4.62723 18.1249 4.68028 18.1779C4.73334 18.231 4.80119 18.2575 4.88383 18.2575H7.55528V19.6375H4.88383Z" fill="white"/>
</svg>
