<svg width="13" height="13" viewBox="0 0 13 13" fill="none" xmlns="http://www.w3.org/2000/svg">
<path d="M5.47483 8.07514L9.79408 3.75589C9.86842 3.68148 9.95542 3.64348 10.0551 3.64189C10.1547 3.64031 10.2434 3.67831 10.321 3.75589C10.3985 3.83348 10.4373 3.92256 10.4373 4.02314C10.4373 4.12381 10.3985 4.21293 10.321 4.29052L5.79121 8.82802C5.70079 8.91835 5.59533 8.96352 5.47483 8.96352C5.35433 8.96352 5.24887 8.91835 5.15846 8.82802L3.07096 6.74052C2.99662 6.6661 2.95996 6.57777 2.96096 6.47552C2.96187 6.37335 3.00112 6.28348 3.07871 6.20589C3.15629 6.12831 3.24537 6.08952 3.34596 6.08952C3.44662 6.08952 3.53575 6.12831 3.61333 6.20589L5.47483 8.07514Z" fill="black"/>
</svg>
