<svg width="8" height="8" viewBox="0 0 8 8" fill="none" xmlns="http://www.w3.org/2000/svg">
<path d="M3.21236 0.628933C3.36884 -0.250969 4.63116 -0.250969 4.78764 0.628933L5.01557 1.91062C5.06912 2.21171 5.28963 2.45594 5.58371 2.53985L7.30385 3.03065C8.07784 3.2515 8.07784 4.3484 7.30385 4.56925L5.58371 5.06006C5.28963 5.14397 5.06912 5.38819 5.01557 5.68928L4.78764 6.97097C4.63116 7.85087 3.36884 7.85087 3.21236 6.97097L2.98443 5.68928C2.93088 5.38819 2.71037 5.14397 2.41629 5.06006L0.696153 4.56925C-0.0778408 4.3484 -0.0778419 3.2515 0.696152 3.03065L2.41629 2.53985C2.71037 2.45594 2.93088 2.21171 2.98443 1.91062L3.21236 0.628933Z" fill="white"/>
</svg>
