<svg width="30" height="30" viewBox="0 0 30 30" fill="none" xmlns="http://www.w3.org/2000/svg">
<path d="M16.547 14.9994L11.6591 10.1118C11.4931 9.9456 11.4081 9.7367 11.4041 9.4851C11.4003 9.2337 11.4853 9.021 11.6591 8.847C11.8331 8.6732 12.0439 8.5863 12.2915 8.5863C12.5391 8.5863 12.7499 8.6732 12.9239 8.847L18.317 14.2401C18.4292 14.3525 18.5084 14.471 18.5546 14.5956C18.6008 14.7202 18.6239 14.8548 18.6239 14.9994C18.6239 15.144 18.6008 15.2786 18.5546 15.4032C18.5084 15.5278 18.4292 15.6463 18.317 15.7587L12.9239 21.1518C12.7577 21.3178 12.5488 21.4028 12.2972 21.4068C12.0458 21.4106 11.8331 21.3256 11.6591 21.1518C11.4853 20.9778 11.3984 20.767 11.3984 20.5194C11.3984 20.2718 11.4853 20.061 11.6591 19.887L16.547 14.9994Z" fill="white"/>
</svg>
