<svg width="23" height="23" viewBox="0 0 23 23" fill="none" xmlns="http://www.w3.org/2000/svg">
<path d="M11.8797 12.787L7.21252 17.4544C7.0851 17.5816 6.92494 17.6468 6.73205 17.6499C6.53931 17.6528 6.37624 17.5876 6.24284 17.4544C6.10959 17.321 6.04297 17.1593 6.04297 16.9695C6.04297 16.7797 6.10959 16.6181 6.24284 16.4847L10.9102 11.8175L6.24284 7.15036C6.11557 7.02294 6.05041 6.86278 6.04734 6.66988C6.04443 6.47714 6.10959 6.31407 6.24284 6.18067C6.37624 6.04743 6.53785 5.9808 6.72768 5.9808C6.91751 5.9808 7.07912 6.04743 7.21252 6.18067L11.8797 10.8481L16.5468 6.18067C16.6743 6.05341 16.8344 5.98824 17.0273 5.98517C17.22 5.98226 17.3831 6.04743 17.5165 6.18067C17.6498 6.31407 17.7164 6.47569 17.7164 6.66551C17.7164 6.85534 17.6498 7.01696 17.5165 7.15036L12.8491 11.8175L17.5165 16.4847C17.6438 16.6121 17.709 16.7723 17.712 16.9651C17.7149 17.1579 17.6498 17.321 17.5165 17.4544C17.3831 17.5876 17.2215 17.6542 17.0317 17.6542C16.8419 17.6542 16.6802 17.5876 16.5468 17.4544L11.8797 12.787Z" fill="white"/>
</svg>
