<svg width="23" height="23" viewBox="0 0 23 23" fill="none" xmlns="http://www.w3.org/2000/svg">
<path d="M11.8797 12.7869L7.21252 17.4543C7.0851 17.5816 6.92494 17.6468 6.73205 17.6498C6.53931 17.6527 6.37624 17.5876 6.24284 17.4543C6.10959 17.3209 6.04297 17.1593 6.04297 16.9695C6.04297 16.7797 6.10959 16.618 6.24284 16.4846L10.9102 11.8175L6.24284 7.15032C6.11557 7.0229 6.05041 6.86275 6.04734 6.66985C6.04443 6.47711 6.10959 6.31404 6.24284 6.18064C6.37624 6.0474 6.53785 5.98077 6.72768 5.98077C6.91751 5.98077 7.07912 6.0474 7.21252 6.18064L11.8797 10.848L16.5468 6.18064C16.6743 6.05338 16.8344 5.98821 17.0273 5.98514C17.22 5.98223 17.3831 6.0474 17.5165 6.18064C17.6498 6.31404 17.7164 6.47566 17.7164 6.66548C17.7164 6.85531 17.6498 7.01692 17.5165 7.15032L12.8491 11.8175L17.5165 16.4846C17.6438 16.6121 17.709 16.7722 17.712 16.9651C17.7149 17.1579 17.6498 17.3209 17.5165 17.4543C17.3831 17.5876 17.2215 17.6542 17.0317 17.6542C16.8419 17.6542 16.6802 17.5876 16.5468 17.4543L11.8797 12.7869Z" fill="white"/>
</svg>
